GRF
version=1
nRows=21
nColumns=19
inDegrees=no
endheader
time	ground_force_vx	ground_force_vy	ground_force_vz	ground_force_px	ground_force_py	ground_force_pz	ground_torque_x	ground_torque_y	ground_torque_z	1_ground_force_vx	1_ground_force_vy	1_ground_force_vz	1_ground_force_px	1_ground_force_py	1_ground_force_pz	1_ground_torque_x	1_ground_torque_y	1_ground_torque_z
      0.00000000	    -47.46735847	    301.47387602	      8.57814818	      0.18739536	     -0.00000000	     -0.10302304	      0.00000000	      1.06745045	     -0.00000000	     51.89316645	    408.03023647	     -6.63346581	     -0.25241901	      0.00000000	     -0.04121417	      0.00000000	      1.84371635	     -0.00000000
      0.00100000	    -47.37189502	    301.50262008	      8.53726737	      0.18739637	     -0.00000000	     -0.10304902	      0.00000000	      1.06270041	     -0.00000000	     51.86795788	    407.99573709	     -6.63827313	     -0.25240719	      0.00000000	     -0.04121520	      0.00000000	      1.82535688	     -0.00000000
      0.00200000	    -47.27917844	    301.53503688	      8.49733693	      0.18739645	     -0.00000000	     -0.10307531	      0.00000000	      1.05746863	     -0.00000000	     51.84252653	    407.96118944	     -6.64255771	     -0.25239575	      0.00000000	     -0.04121667	      0.00000000	      1.80720067	     -0.00000000
      0.00300000	    -47.18919362	    301.57115712	      8.45834230	      0.18739561	     -0.00000000	     -0.10310186	      0.00000000	      1.05179969	     -0.00000000	     51.81683958	    407.92650356	     -6.64635404	     -0.25238466	      0.00000000	     -0.04121849	      0.00000000	      1.78926102	     -0.00000000
      0.00400000	    -47.10192341	    301.61100485	      8.42027005	      0.18739384	     -0.00000000	     -0.10312861	      0.00000000	      1.04573715	     -0.00000000	     51.79086570	    407.89158690	     -6.64969838	     -0.25237393	      0.00000000	     -0.04122058	      0.00000000	      1.77155064	     -0.00000000
      0.00500000	    -47.01734847	    301.65459724	      8.38310805	      0.18739116	     -0.00000000	     -0.10315551	      0.00000000	      1.03932341	     -0.00000000	     51.76457520	    407.85634474	     -6.65262873	     -0.25236355	      0.00000000	     -0.04122286	      0.00000000	      1.75408164	     -0.00000000
      0.00600000	    -46.93544720	    301.70194433	      8.34684548	      0.18738757	     -0.00000000	     -0.10318251	      0.00000000	      1.03259966	     -0.00000000	     51.73794032	    407.82068072	     -6.65518477	     -0.25235350	      0.00000000	     -0.04122525	      0.00000000	      1.73686558	     -0.00000000
      0.00700000	    -46.85619568	    301.75304883	      8.31147301	      0.18738308	     -0.00000000	     -0.10320957	      0.00000000	      1.02560571	     -0.00000000	     51.71093539	    407.78449735	     -6.65740777	     -0.25234377	      0.00000000	     -0.04122766	      0.00000000	      1.71991345	     -0.00000000
      0.00800000	    -46.77956756	    301.80790595	      8.27698287	      0.18737770	     -0.00000000	     -0.10323662	      0.00000000	      1.01838000	     -0.00000000	     51.68353709	    407.74769655	     -6.65934051	     -0.25233435	      0.00000000	     -0.04123001	      0.00000000	      1.70323569	     -0.00000000
      0.00900000	    -46.70553404	    301.86650319	      8.24336891	      0.18737144	     -0.00000000	     -0.10326362	      0.00000000	      1.01095943	     -0.00000000	     51.65572460	    407.71018020	     -6.66102715	     -0.25232523	      0.00000000	     -0.04123224	      0.00000000	      1.68684222	     -0.00000000
      0.01000000	    -46.63406380	    301.92882021	      8.21062674	      0.18736431	     -0.00000000	     -0.10329052	      0.00000000	      1.00337933	     -0.00000000	     51.62747984	    407.67185074	     -6.66251314	     -0.25231639	      0.00000000	     -0.04123428	      0.00000000	      1.67074242	     -0.00000000
      0.01100000	    -46.56512294	    301.99482874	      8.17875379	      0.18735633	     -0.00000000	     -0.10331728	      0.00000000	      0.99567340	     -0.00000000	     51.59878760	    407.63261176	     -6.66384507	     -0.25230783	      0.00000000	     -0.04123604	      0.00000000	      1.65494520	     -0.00000000
      0.01200000	    -46.49867495	    302.06449243	      8.14774936	      0.18734751	     -0.00000000	     -0.10334385	      0.00000000	      0.98787363	     -0.00000000	     51.56963574	    407.59236859	     -6.66507052	     -0.25229952	      0.00000000	     -0.04123747	      0.00000000	      1.63945897	     -0.00000000
      0.01300000	    -46.43468072	    302.13776679	      8.11761475	      0.18733788	     -0.00000000	     -0.10337020	      0.00000000	      0.98001026	     -0.00000000	     51.54001534	    407.55102895	     -6.66623787	     -0.25229146	      0.00000000	     -0.04123850	      0.00000000	      1.62429168	     -0.00000000
      0.01400000	    -46.37309847	    302.21459917	      8.08835325	      0.18732745	     -0.00000000	     -0.10339628	      0.00000000	      0.97211175	     -0.00000000	     51.50992084	    407.50850353	     -6.66739614	     -0.25228364	      0.00000000	     -0.04123907	      0.00000000	      1.60945084	     -0.00000000
      0.01500000	    -46.31388380	    302.29492872	      8.05997026	      0.18731625	     -0.00000000	     -0.10342206	      0.00000000	      0.96420474	     -0.00000000	     51.47935013	    407.46470663	     -6.66859482	     -0.25227603	      0.00000000	     -0.04123913	      0.00000000	      1.59494353	     -0.00000000
      0.01600000	    -46.25698968	    302.37868638	      8.03247330	      0.18730430	     -0.00000000	     -0.10344750	      0.00000000	      0.95631404	     -0.00000000	     51.44830469	    407.41955675	     -6.66988361	     -0.25226862	      0.00000000	     -0.04123863	      0.00000000	      1.58077640	     -0.00000000
      0.01700000	    -46.20236647	    302.46579494	      8.00587206	      0.18729163	     -0.00000000	     -0.10347257	      0.00000000	      0.94846260	     -0.00000000	     51.41678968	    407.37297724	     -6.67131225	     -0.25226141	      0.00000000	     -0.04123752	      0.00000000	      1.56695575	     -0.00000000
      0.01800000	    -46.14996198	    302.55616912	      7.98017844	      0.18727827	     -0.00000000	     -0.10349725	      0.00000000	      0.94067154	     -0.00000000	     51.38481395	    407.32489682	     -6.67293023	     -0.25225437	      0.00000000	     -0.04123575	      0.00000000	      1.55348749	     -0.00000000
      0.01900000	    -46.09972150	    302.64971559	      7.95540653	      0.18726424	     -0.00000000	     -0.10352151	      0.00000000	      0.93296013	     -0.00000000	     51.35239013	    407.27525021	     -6.67478665	     -0.25224749	      0.00000000	     -0.04123329	      0.00000000	      1.54037716	     -0.00000000
      0.02000000	    -46.05158787	    302.74633318	      7.93157265	      0.18724959	     -0.00000000	     -0.10354532	      0.00000000	      0.92534584	     -0.00000000	     51.31953467	    407.22397866	     -6.67692987	     -0.25224077	      0.00000000	     -0.04123011	      0.00000000	      1.52763002	     -0.00000000
